<mxfile host="app.diagrams.net" agent="Mozilla/5.0 (Windows NT 10.0; Win64; x64) AppleWebKit/537.36 (KHTML, like Gecko) Chrome/131.0.0.0 Safari/537.36" version="24.9.1">
  <diagram name="Pagina-1" id="9Re1qzl7Ps6UAgszhfIU">
    <mxGraphModel dx="913" dy="454" grid="1" gridSize="10" guides="1" tooltips="1" connect="1" arrows="1" fold="1" page="1" pageScale="1" pageWidth="827" pageHeight="1169" math="0" shadow="0">
      <root>
        <mxCell id="0" />
        <mxCell id="1" parent="0" />
        <mxCell id="QBK8akf9A2QPehuarIsl-8" style="edgeStyle=none;rounded=0;orthogonalLoop=1;jettySize=auto;html=1;entryX=0;entryY=0.5;entryDx=0;entryDy=0;endArrow=none;endFill=0;" parent="1" target="QBK8akf9A2QPehuarIsl-6" edge="1">
          <mxGeometry relative="1" as="geometry">
            <mxPoint x="173" y="450" as="sourcePoint" />
          </mxGeometry>
        </mxCell>
        <mxCell id="QBK8akf9A2QPehuarIsl-1" value="User" style="shape=umlActor;verticalLabelPosition=bottom;verticalAlign=top;html=1;outlineConnect=0;" parent="1" vertex="1">
          <mxGeometry x="124" y="420" width="30" height="60" as="geometry" />
        </mxCell>
        <mxCell id="QBK8akf9A2QPehuarIsl-5" value="PishTrap" style="swimlane;whiteSpace=wrap;html=1;fillColor=#d5e8d4;strokeColor=#82b366;shadow=0;startSize=23;" parent="1" vertex="1">
          <mxGeometry x="233" y="220" width="470" height="500" as="geometry">
            <mxRectangle x="170" y="460" width="90" height="30" as="alternateBounds" />
          </mxGeometry>
        </mxCell>
        <mxCell id="QBK8akf9A2QPehuarIsl-6" value="Login" style="ellipse;whiteSpace=wrap;html=1;" parent="QBK8akf9A2QPehuarIsl-5" vertex="1">
          <mxGeometry x="331.5" y="200" width="90" height="60" as="geometry" />
        </mxCell>
        <mxCell id="QBK8akf9A2QPehuarIsl-10" style="edgeStyle=none;rounded=0;orthogonalLoop=1;jettySize=auto;html=1;exitX=1;exitY=0;exitDx=0;exitDy=0;entryX=0.247;entryY=0.944;entryDx=0;entryDy=0;dashed=1;entryPerimeter=0;" parent="QBK8akf9A2QPehuarIsl-5" source="QBK8akf9A2QPehuarIsl-9" target="QBK8akf9A2QPehuarIsl-6" edge="1">
          <mxGeometry relative="1" as="geometry">
            <mxPoint x="152.82999999999993" y="310.00000000000006" as="sourcePoint" />
            <mxPoint x="219.68019484660545" y="240.51320343559638" as="targetPoint" />
          </mxGeometry>
        </mxCell>
        <mxCell id="knShl7MB45VmdX-rQCHr-2" value="&amp;lt;&amp;lt;extends&amp;gt;&amp;gt;" style="edgeLabel;html=1;align=center;verticalAlign=middle;resizable=0;points=[];" parent="QBK8akf9A2QPehuarIsl-10" vertex="1" connectable="0">
          <mxGeometry x="-0.3837" y="2" relative="1" as="geometry">
            <mxPoint x="10" y="-13" as="offset" />
          </mxGeometry>
        </mxCell>
        <mxCell id="QBK8akf9A2QPehuarIsl-9" value="Scansione delle email" style="ellipse;whiteSpace=wrap;html=1;" parent="QBK8akf9A2QPehuarIsl-5" vertex="1">
          <mxGeometry x="190.5" y="350" width="100" height="70" as="geometry" />
        </mxCell>
        <mxCell id="o7je3mRLeXVFyOTceTla-7" style="edgeStyle=orthogonalEdgeStyle;rounded=0;orthogonalLoop=1;jettySize=auto;html=1;exitX=1;exitY=0.5;exitDx=0;exitDy=0;entryX=0;entryY=0.5;entryDx=0;entryDy=0;endArrow=block;endFill=0;" parent="QBK8akf9A2QPehuarIsl-5" edge="1">
          <mxGeometry relative="1" as="geometry">
            <mxPoint x="126.5" y="425" as="sourcePoint" />
            <mxPoint x="190.5" y="380" as="targetPoint" />
            <Array as="points">
              <mxPoint x="146.5" y="425" />
              <mxPoint x="146.5" y="380" />
            </Array>
          </mxGeometry>
        </mxCell>
        <mxCell id="o7je3mRLeXVFyOTceTla-2" value="Scansione non lette" style="ellipse;whiteSpace=wrap;html=1;" parent="QBK8akf9A2QPehuarIsl-5" vertex="1">
          <mxGeometry x="46.5" y="390" width="80" height="80" as="geometry" />
        </mxCell>
        <mxCell id="o7je3mRLeXVFyOTceTla-19" style="edgeStyle=orthogonalEdgeStyle;rounded=0;orthogonalLoop=1;jettySize=auto;html=1;exitX=1;exitY=0.5;exitDx=0;exitDy=0;endArrow=none;endFill=0;" parent="QBK8akf9A2QPehuarIsl-5" source="o7je3mRLeXVFyOTceTla-3" edge="1">
          <mxGeometry relative="1" as="geometry">
            <mxPoint x="146.5" y="380" as="targetPoint" />
          </mxGeometry>
        </mxCell>
        <mxCell id="o7je3mRLeXVFyOTceTla-3" value="Scansione per giorno" style="ellipse;whiteSpace=wrap;html=1;" parent="QBK8akf9A2QPehuarIsl-5" vertex="1">
          <mxGeometry x="46.5" y="300" width="80" height="80" as="geometry" />
        </mxCell>
        <mxCell id="o7je3mRLeXVFyOTceTla-12" style="rounded=0;orthogonalLoop=1;jettySize=auto;html=1;exitX=1;exitY=0.5;exitDx=0;exitDy=0;entryX=0.063;entryY=0.749;entryDx=0;entryDy=0;dashed=1;entryPerimeter=0;" parent="QBK8akf9A2QPehuarIsl-5" source="o7je3mRLeXVFyOTceTla-9" edge="1" target="QBK8akf9A2QPehuarIsl-6">
          <mxGeometry relative="1" as="geometry">
            <mxPoint x="256.5000000000025" y="306.34" as="sourcePoint" />
            <mxPoint x="334.8784433422427" y="239.99544925601376" as="targetPoint" />
          </mxGeometry>
        </mxCell>
        <mxCell id="o7je3mRLeXVFyOTceTla-14" value="&amp;lt;&amp;lt;extends&amp;gt;&amp;gt;" style="edgeLabel;html=1;align=center;verticalAlign=middle;resizable=0;points=[];" parent="o7je3mRLeXVFyOTceTla-12" vertex="1" connectable="0">
          <mxGeometry x="-0.1171" relative="1" as="geometry">
            <mxPoint as="offset" />
          </mxGeometry>
        </mxCell>
        <mxCell id="o7je3mRLeXVFyOTceTla-9" value="Visualizzazione report" style="ellipse;whiteSpace=wrap;html=1;" parent="QBK8akf9A2QPehuarIsl-5" vertex="1">
          <mxGeometry x="126.5" y="250" width="130" height="70" as="geometry" />
        </mxCell>
        <mxCell id="5pJuXSMopIIriWHp51IY-3" style="rounded=0;orthogonalLoop=1;jettySize=auto;html=1;endArrow=none;endFill=0;exitX=0.034;exitY=0.623;exitDx=0;exitDy=0;exitPerimeter=0;" edge="1" parent="QBK8akf9A2QPehuarIsl-5" source="5pJuXSMopIIriWHp51IY-2">
          <mxGeometry relative="1" as="geometry">
            <mxPoint x="-63" y="220" as="targetPoint" />
            <mxPoint x="87" y="200" as="sourcePoint" />
          </mxGeometry>
        </mxCell>
        <mxCell id="5pJuXSMopIIriWHp51IY-2" value="Logout" style="ellipse;whiteSpace=wrap;html=1;" vertex="1" parent="QBK8akf9A2QPehuarIsl-5">
          <mxGeometry x="107" y="160" width="113" height="50" as="geometry" />
        </mxCell>
        <mxCell id="5pJuXSMopIIriWHp51IY-4" style="rounded=0;orthogonalLoop=1;jettySize=auto;html=1;exitX=1;exitY=0.5;exitDx=0;exitDy=0;entryX=0;entryY=0;entryDx=0;entryDy=0;dashed=1;" edge="1" parent="QBK8akf9A2QPehuarIsl-5" source="5pJuXSMopIIriWHp51IY-2" target="QBK8akf9A2QPehuarIsl-6">
          <mxGeometry relative="1" as="geometry">
            <mxPoint x="247" y="207.5" as="sourcePoint" />
            <mxPoint x="325.8784433422427" y="162.49544925601379" as="targetPoint" />
          </mxGeometry>
        </mxCell>
        <mxCell id="5pJuXSMopIIriWHp51IY-5" value="&amp;lt;&amp;lt;extends&amp;gt;&amp;gt;" style="edgeLabel;html=1;align=center;verticalAlign=middle;resizable=0;points=[];" vertex="1" connectable="0" parent="5pJuXSMopIIriWHp51IY-4">
          <mxGeometry x="-0.1171" relative="1" as="geometry">
            <mxPoint as="offset" />
          </mxGeometry>
        </mxCell>
        <mxCell id="knShl7MB45VmdX-rQCHr-1" style="edgeStyle=none;rounded=0;orthogonalLoop=1;jettySize=auto;html=1;endArrow=none;endFill=0;entryX=0;entryY=0.5;entryDx=0;entryDy=0;" parent="1" target="o7je3mRLeXVFyOTceTla-2" edge="1">
          <mxGeometry relative="1" as="geometry">
            <mxPoint x="163" y="510" as="sourcePoint" />
            <mxPoint x="263" y="590" as="targetPoint" />
          </mxGeometry>
        </mxCell>
        <mxCell id="knShl7MB45VmdX-rQCHr-9" value="Google Cloud" style="swimlane;whiteSpace=wrap;html=1;fillColor=#dae8fc;strokeColor=#6c8ebf;" parent="1" vertex="1">
          <mxGeometry x="373" y="750" width="185" height="180" as="geometry" />
        </mxCell>
        <mxCell id="knShl7MB45VmdX-rQCHr-10" value="Flow Autenticazione&amp;nbsp;&lt;span style=&quot;background-color: initial;&quot;&gt;OAuth2.0&lt;/span&gt;" style="ellipse;whiteSpace=wrap;html=1;" parent="knShl7MB45VmdX-rQCHr-9" vertex="1">
          <mxGeometry x="19" y="60" width="150" height="80" as="geometry" />
        </mxCell>
        <mxCell id="knShl7MB45VmdX-rQCHr-11" style="edgeStyle=none;rounded=0;orthogonalLoop=1;jettySize=auto;html=1;endArrow=none;endFill=0;" parent="knShl7MB45VmdX-rQCHr-9" edge="1">
          <mxGeometry relative="1" as="geometry">
            <mxPoint x="-235" y="-240" as="sourcePoint" />
            <mxPoint x="20" y="100" as="targetPoint" />
            <Array as="points">
              <mxPoint x="-235" y="100" />
            </Array>
          </mxGeometry>
        </mxCell>
        <mxCell id="knShl7MB45VmdX-rQCHr-12" style="edgeStyle=none;rounded=0;orthogonalLoop=1;jettySize=auto;html=1;entryX=0.5;entryY=1;entryDx=0;entryDy=0;dashed=1;" parent="1" source="knShl7MB45VmdX-rQCHr-10" target="QBK8akf9A2QPehuarIsl-6" edge="1">
          <mxGeometry relative="1" as="geometry">
            <mxPoint x="424.56999999999994" y="619.49" as="sourcePoint" />
            <mxPoint x="491.42019484660545" y="550.0032034355963" as="targetPoint" />
          </mxGeometry>
        </mxCell>
        <mxCell id="knShl7MB45VmdX-rQCHr-13" value="&amp;lt;&amp;lt;include&amp;gt;&amp;gt;" style="edgeLabel;html=1;align=center;verticalAlign=middle;resizable=0;points=[];" parent="knShl7MB45VmdX-rQCHr-12" vertex="1" connectable="0">
          <mxGeometry x="-0.3837" y="2" relative="1" as="geometry">
            <mxPoint x="25" y="-58" as="offset" />
          </mxGeometry>
        </mxCell>
        <mxCell id="o7je3mRLeXVFyOTceTla-5" style="edgeStyle=none;rounded=0;orthogonalLoop=1;jettySize=auto;html=1;endArrow=none;endFill=0;entryX=0;entryY=0.5;entryDx=0;entryDy=0;entryPerimeter=0;" parent="1" target="o7je3mRLeXVFyOTceTla-3" edge="1">
          <mxGeometry relative="1" as="geometry">
            <mxPoint x="173" y="490" as="sourcePoint" />
            <mxPoint x="263" y="580" as="targetPoint" />
          </mxGeometry>
        </mxCell>
        <mxCell id="o7je3mRLeXVFyOTceTla-11" style="rounded=0;orthogonalLoop=1;jettySize=auto;html=1;entryX=0;entryY=0.5;entryDx=0;entryDy=0;endArrow=none;endFill=0;" parent="1" target="o7je3mRLeXVFyOTceTla-9" edge="1">
          <mxGeometry relative="1" as="geometry">
            <mxPoint x="359.5000000000007" y="515" as="targetPoint" />
            <mxPoint x="180" y="470" as="sourcePoint" />
          </mxGeometry>
        </mxCell>
      </root>
    </mxGraphModel>
  </diagram>
</mxfile>
